# xmcd
#
# Track frame offsets: 
#        150
#        13622
#        26752
#        39142
#        52116
#        66003
#        80080
#        91897
#        105213
#        120017
#        131793
#        143526
#        155524
#        168408
#        180095
#        192736
#        206071
#        218481
#        232057
#        247314
#
# Disc length: 3476 seconds
#
# Revision: 4
# Processed by: cddbd v1.5.2PL0 Copyright (c) Steve Scherf et al.
# Submitted via: ExactAudioCopyFreeDBPlugin 1.0
#
DISCID=0c0d9214
DTITLE=Various Artist - Country Roots
DYEAR=2001
DGENRE=Country
TTITLE0=The Carter Family - My Dixie Darling
TTITLE1=Jimmie Rodgers - In The Jailhouse Now
TTITLE2=Hank Williams - Lovesick Blues
TTITLE3=Roy Acuff - Wabash Cannonball
TTITLE4=Eddy Arnold - The Cattle Call
TTITLE5=Patsy Montana - I Want To Be A Cowboy's Sweetheart
TTITLE6=Ernest Tubb - Walking The Floor Over You
TTITLE7=Tex Ritter - Jealous Heart
TTITLE8=Vernon Dalhart - The Prisoner's Song
TTITLE9=Gene Autry - Back In The Saddle Again
TTITLE10=Bob Wills and His Texas Playboys - New San Antonio Rose
TTITLE11=Hank Williams - Long Gone Lonesome Blues
TTITLE12=Jimmie Davis - You Are My Sunshine
TTITLE13=Roy Rogers - The Yellow Rose Of Texas
TTITLE14=Jack Guthrie - Oklahoma Hills
TTITLE15=Tex Williams - Smoke! Smoke! Smoke! (That Cigarette)
TTITLE16=Leon Payne - I Love You Because
TTITLE17=Merle Travis - Divorce Me C O D
TTITLE18=Jimmie Rodgers - Blue Yodel (BT For Texas)
TTITLE19=Bob Wills and His Texas Playboys - Stay A Little Longer
EXTD=YEAR: 2001
EXTT0=
EXTT1=
EXTT2=
EXTT3=
EXTT4=
EXTT5=
EXTT6=
EXTT7=
EXTT8=
EXTT9=
EXTT10=
EXTT11=
EXTT12=
EXTT13=
EXTT14=
EXTT15=
EXTT16=
EXTT17=
EXTT18=
EXTT19=
PLAYORDER=
